# xmcd
#
# Track frame offsets:
#	150
#	10787
#	33209
#	44121
#	65985
#	81622
#	96092
#	111209
#	125901
#	143240
#	157367
#	172209
#	186789
#	212551
#	226678
#	236080
#	255457
#	264971
#	280501
#	292540
#	314357
#
# Disc length: 4370
#
# Revision: 1
# Processed by: cddbd v1.5.1PL0 Copyright (c) Steve Scherf et al.
# Submitted via: CDex 1.51
# Normalized: r0:DSETVAR1,TDELIM( - )
#
DISCID=36111015
DTITLE=Various Artist - Movie Theatre 3
DYEAR=1999
DGENRE=Jazz
TTITLE0=Louis Armstrong - What A Wonderful World!
TTITLE1=John Coltrane and Johnny Martman - My One And Only Love
TTITLE2=Carman McRae - I See Your Face Before Me
TTITLE3=Diane Schuur and Dave Grusin - The Very Thought Of You
TTITLE4=Louis Armstrong - La Vie En Rose
TTITLE5=Ella Fitzgerald - I Love You For Sentimental Reasons
TTITLE6=B.B.King and Diane Schuur - It Had To Be You
TTITLE7=Gil Evans Orchestra - Cheek To Cheek
TTITLE8=Carm McRae - When I Fall In Love
TTITLE9=Ramsey Lewis - Since I Fell For You
TTITLE10=Billie Holiday - Solitude
TTITLE11=Louis Armstrong - Only You
TTITLE12=Diana Krall - That Can't Take That Away From Me
TTITLE13=Ella Fitzgerald - Making Woopee
TTITLE14=Johnny Hartman - Isn't It Romantic?
TTITLE15=Johnny Coltrane and Duke Ellington - In A Sentimental Mood
TTITLE16=Ramsey Lewis Trio - I Love Paris
TTITLE17=Johnny Hartman - That Old Black Magic
TTITLE18=Ella Fitzgerald - Nice Work If You Can Get It
TTITLE19=Charles Mingus - Haitian Fight Song
TTITLE20=Trisha Yearwood - The Christmas Song
EXTD=YEAR: 1999
EXTT0=
EXTT1=
EXTT2=
EXTT3=
EXTT4=
EXTT5=
EXTT6=
EXTT7=
EXTT8=
EXTT9=
EXTT10=
EXTT11=
EXTT12=
EXTT13=
EXTT14=
EXTT15=
EXTT16=
EXTT17=
EXTT18=
EXTT19=
EXTT20=
PLAYORDER=
